<svg width="160" height="143" viewBox="0 0 160 143" xmlns="http://www.w3.org/2000/svg">
    <g fill="none" fill-rule="evenodd">
        <g transform="translate(0 25.284)">
            <path d="m78.78 57.259-3.111-.489-19.281-6.224-11.274-3.259a12.146 12.146 0 0 0-9.759.667C30.02 50.666 15.323 64.35 15.323 64.35l10.585 10.914-4.983 22.086c5.579 15.862 16.502 17.68 16.502 17.68a38.677 38.677 0 0 0 15.649-2.587c10.14-3.854 20.779-12.928 22.113-16.827.8-2.338 1.462-7.255 1.987-12.808l16.413-2.978 3.997-25.794-18.805 3.223z" fill="#455A64" fill-rule="nonzero"/>
            <rect fill="#45BEA5" y="106.696" width="139.594" height="10.225" rx="5.113"/>
            <path d="M134.482 116.921H5.112a5.094 5.094 0 0 1-3.442-1.332h136.254a5.094 5.094 0 0 1-3.442 1.332z" fill-opacity=".4" fill="#000"/>
            <path d="M55.325 96.586s-.049.053-.155.137c-.107.085-.263.214-.48.356a10.98 10.98 0 0 1-1.93 1.036 11.79 11.79 0 0 1-13.337-2.908 11.114 11.114 0 0 1-1.334-1.751c-.137-.218-.222-.4-.289-.52a.934.934 0 0 1-.084-.187c.161.21.31.43.444.658.407.6.865 1.164 1.37 1.685a11.91 11.91 0 0 0 13.137 2.872 12.417 12.417 0 0 0 1.942-.965c.472-.28.703-.44.716-.413zM49.226 51.466c.018.034.03.07.035.107.023.084.05.187.08.316.067.275.16.689.272 1.218.329 1.497.541 3.018.635 4.548a14.364 14.364 0 0 1-.182 3.174 10.327 10.327 0 0 1-1.267 3.428 13.56 13.56 0 0 1-2.636 3.054c-1.045.933-2.2 1.778-3.379 2.694-2.507 1.88-4.944 3.583-7.113 5.13-2.17 1.547-4.103 2.93-5.642 4.095l-.049.04-.048-.04a33.254 33.254 0 0 1-3.086-2.779 7.611 7.611 0 0 1-.724-.854c-.076-.102-.12-.186-.156-.24a.778.778 0 0 1-.049-.089l.24.303c.234.287.483.562.747.822.989.96 2.028 1.866 3.112 2.717h-.098a183.05 183.05 0 0 1 5.62-4.144c2.178-1.551 4.605-3.263 7.113-5.143 1.173-.89 2.33-1.757 3.365-2.668a13.435 13.435 0 0 0 2.605-2.996 10.03 10.03 0 0 0 1.258-3.348c.185-1.035.255-2.088.21-3.139a32.293 32.293 0 0 0-.56-4.534c-.099-.52-.174-.93-.232-1.227a7.134 7.134 0 0 1-.053-.32.342.342 0 0 1-.018-.125zM132.951 61.465c4.513-3.873 6.042-10.839 3.557-16.24l-6.358-.654a9.065 9.065 0 0 0 4.61-9.14 12.141 12.141 0 0 1-13.883 2.556c-2.97-1.467-5.38-4.201-8.643-4.775-2.96-.52-5.872.89-8.709 1.876-2.836.987-6.268 1.56-8.615-.32-1.859-1.489-2.437-4.099-2.317-6.481.12-2.383.81-4.704.956-7.082a16.089 16.089 0 0 0-5.152-12.546A12.208 12.208 0 0 0 69.23 2.564C67.84 3.64 66.666 5.03 65.088 5.809c-1.778.89-3.854.89-5.78 1.334-1.924.444-3.956 1.751-4.16 3.73l-.779 4.05a6.51 6.51 0 0 1-.444.853c-1.636 2.872-4.988 4.762-5.722 8.003-.409 1.809.098 3.77-.511 5.521-.805 2.307-3.294 3.606-4.446 5.753-1.591 2.952-.51 8.122 2.036 10.3 2.548 2.179 7.798 4.49 11.08 5.189.888-3.41 1.675-7.056 2.435-10.786 1.334 1.285 2.743 2.508 4.14 3.721 3.65 3.175 7.38 6.398 9.913 10.519 4.815 7.838 3.759 18.328 9.827 25.236 1.187 1.356 2.632 2.561 4.357 3.086 1.725.524 3.77.244 5.046-1.027 1.507-1.503 2.834-4.138 4.501-5.458 2.223-1.756 5.45-.356 7.829 1.17 1.725 1.102 3.45 2.267 5.401 2.871 1.952.605 4.228.565 5.891-.627 1.663-1.191 2.392-3.734 1.191-5.392-.48-.663-1.195-1.125-1.671-1.779-.476-.653-.614-1.72.04-2.222.653-.503 1.725 0 2.503.444a14.906 14.906 0 0 0 21.668-8.06c-2.19.328-4.43.06-6.482-.773z" fill="#263238" fill-rule="nonzero"/>
            <path d="M128.981 26.588c.204.148.396.312.574.49.536.499.987 1.083 1.333 1.729.241.47.406.976.49 1.498a3.557 3.557 0 0 1-1.583 3.516c-.338.22-.721.357-1.12.405a2.565 2.565 0 0 1-1.245-.178c-1.65-.676-2.481-2.583-4.264-3.432-1.738-.92-3.96-.982-6.095-.493-2.134.489-4.219 1.649-6.321 2.831-2.103 1.183-4.34 2.45-6.914 2.89a9.705 9.705 0 0 1-3.823-.026 7.3 7.3 0 0 1-1.778-.658 6.909 6.909 0 0 1-1.494-1.103 8.42 8.42 0 0 1-1.911-3.032 13.675 13.675 0 0 1-.792-3.348c-.235-2.222-.049-4.356-.026-6.326a18.605 18.605 0 0 0-.538-5.432 12.532 12.532 0 0 0-.85-2.223c-.308-.641-.67-1.255-1.08-1.836a13.848 13.848 0 0 0-2.272-2.534 14.444 14.444 0 0 0-1.738-1.28l-.484-.29-.16-.102c.06.023.118.05.173.085l.498.266a13.24 13.24 0 0 1 4.09 3.784 13.28 13.28 0 0 1 1.978 4.09c.464 1.786.657 3.633.574 5.477 0 1.982-.191 4.099.049 6.3a13.56 13.56 0 0 0 .778 3.289 8.207 8.207 0 0 0 1.867 2.948c.429.42.913.779 1.44 1.066a7.393 7.393 0 0 0 1.712.636c1.231.252 2.5.26 3.734.022 2.525-.444 4.74-1.684 6.842-2.863 2.103-1.178 4.179-2.338 6.384-2.84a11.159 11.159 0 0 1 3.259-.276 8.562 8.562 0 0 1 1.551.253c.493.134.97.32 1.423.556 1.845.89 2.667 2.819 4.237 3.446a2.37 2.37 0 0 0 2.222-.196 3.414 3.414 0 0 0 1.334-1.583 3.352 3.352 0 0 0 .222-1.778 4.806 4.806 0 0 0-.444-1.472 6.984 6.984 0 0 0-1.263-1.738 8.95 8.95 0 0 0-.404-.391l-.165-.147zM56.317 52.249s0-.067-.036-.2a3.463 3.463 0 0 0-.12-.583 4.935 4.935 0 0 0-1.09-1.982 8.513 8.513 0 0 0-2.947-2.05c-1.289-.591-2.89-.89-4.64-1.21-1.753-.32-3.74-.702-5.527-1.893a8.202 8.202 0 0 1-1.307-12.497c1.84-1.89 4.446-2.827 6.57-4.486.522-.417.99-.897 1.397-1.427a5.9 5.9 0 0 0 .853-1.778c.356-1.262.325-2.583.445-3.868a8.78 8.78 0 0 1 .355-1.898 4.766 4.766 0 0 1 .939-1.663 6.669 6.669 0 0 1 3.178-1.778c1.143-.333 2.28-.542 3.352-.836a9.131 9.131 0 0 0 2.93-1.333 10.999 10.999 0 0 0 2.192-2.054c.593-.7 1.147-1.434 1.658-2.196.982-1.485 1.823-2.877 2.716-4.002.74-.97 1.612-1.832 2.592-2.56a7.233 7.233 0 0 1 2.05-1.05c.252-.088.513-.154.777-.195 0 0-.27.062-.764.24-.722.254-1.4.618-2.01 1.08a12.964 12.964 0 0 0-2.543 2.566c-.889 1.11-1.707 2.498-2.667 4a23.424 23.424 0 0 1-1.654 2.272 11.27 11.27 0 0 1-2.223 2.099 9.336 9.336 0 0 1-2.978 1.333c-1.085.303-2.223.512-3.348.845a6.42 6.42 0 0 0-3.076 1.712c-.4.462-.702 1-.89 1.582a8.496 8.496 0 0 0-.342 1.85c-.12 1.271-.084 2.6-.444 3.912a6.028 6.028 0 0 1-.89 1.832 8.482 8.482 0 0 1-1.44 1.467 29.635 29.635 0 0 1-3.418 2.174 14.929 14.929 0 0 0-3.112 2.29 8.002 8.002 0 0 0 1.253 12.18c1.734 1.17 3.708 1.543 5.446 1.894 1.738.351 3.361.64 4.66 1.25a8.5 8.5 0 0 1 2.965 2.107 4.89 4.89 0 0 1 1.066 2.031c.052.194.084.392.098.592-.026.164-.026.23-.026.23z" fill="#263238" fill-rule="nonzero"/>
            <path d="M91.81 12.34a1.107 1.107 0 0 1-.337-.089c-.304-.1-.6-.218-.89-.356a11.75 11.75 0 0 1-4.752-4.085 7.962 7.962 0 0 1-.484-.827c-.064-.1-.11-.21-.138-.325.031 0 .285.41.756 1.054a13.666 13.666 0 0 0 4.69 4.037c.707.369 1.174.555 1.156.59zM106.593 42.664s-.28-.071-.783-.178c-.71-.15-1.434-.24-2.16-.267a28.781 28.781 0 0 0-3.228.094c-1.218.084-2.56.209-3.979.177-1.343 0-2.674-.25-3.925-.738a7.002 7.002 0 0 1-2.632-1.92 4.921 4.921 0 0 1-1.01-1.952 3.37 3.37 0 0 1-.093-.591.742.742 0 0 1 0-.209c.027 0 .04.285.183.778.216.69.575 1.326 1.053 1.867a6.922 6.922 0 0 0 2.588 1.832c1.229.464 2.532.702 3.845.702 1.4.031 2.739-.084 3.961-.16a25.38 25.38 0 0 1 3.25-.044c.734.043 1.462.157 2.174.342.193.051.383.112.57.182a.65.65 0 0 1 .186.085zM132.791 62.878s-.04 0-.129.058c-.126.058-.26.101-.395.13a3.16 3.16 0 0 1-1.592-.072 5.13 5.13 0 0 1-2.134-1.334 8.918 8.918 0 0 1-1.716-2.876c-.484-1.138-.889-2.445-1.685-3.654a9.598 9.598 0 0 0-1.41-1.72 11.283 11.283 0 0 0-1.884-1.428c-2.792-1.685-6.46-2.374-10.225-2.152-3.766.223-7.309.934-10.585 1.16a20.85 20.85 0 0 1-8.625-.889 11.946 11.946 0 0 1-4.948-3.111 7.318 7.318 0 0 1-.591-.707 4.215 4.215 0 0 1-.383-.556c-.088-.147-.16-.267-.217-.356a.538.538 0 0 1-.067-.124s.035.035.089.11l.231.343c.122.188.256.367.4.538.187.243.388.473.605.69a12.052 12.052 0 0 0 4.93 3.005 20.984 20.984 0 0 0 8.558.835c3.259-.24 6.797-.987 10.59-1.182 3.792-.196 7.49.475 10.327 2.2.688.42 1.33.91 1.916 1.463a9.847 9.847 0 0 1 1.431 1.778c.805 1.24 1.2 2.561 1.676 3.695a8.758 8.758 0 0 0 1.654 2.85 5.064 5.064 0 0 0 2.068 1.333c.5.169 1.036.207 1.555.111.378-.062.552-.155.556-.138z" fill="#455A64" fill-rule="nonzero"/>
            <path d="M62.87 12.335a3.325 3.325 0 0 0-3.388 2.957l-3.597 37.437c-.622 5.264 6.264 16.551 11.906 17.174 5.695.626 6.255-2.134 6.993-7.114 1.236-8.33 1.65-11.47 1.645-11.42-.005.048 7.335-.245 10.056-9.416 1.334-4.562 2.125-12.23 2.556-18.526.387-5.668-2.427-13.052-8.109-13.199L62.87 12.335z" fill="#FFBE9D" fill-rule="nonzero"/>
            <path d="M86.56 28.384a1.205 1.205 0 0 1-1.333 1.058 1.16 1.16 0 0 1-1.098-1.244 1.218 1.218 0 0 1 1.333-1.063 1.16 1.16 0 0 1 1.099 1.25zM87.072 25.961c-.142.17-1.103-.444-2.405-.35-1.303.093-2.223.808-2.36.662-.072-.067.057-.36.444-.694a3.334 3.334 0 0 1 1.876-.725c.676-.05 1.35.117 1.925.476.43.28.587.57.52.631zM75.122 29.06c-.156.156-1.054-.551-2.356-.582-1.303-.031-2.277.591-2.414.444-.067-.075.093-.355.52-.644a3.294 3.294 0 0 1 1.938-.538c.677.017 1.33.249 1.867.662.392.302.512.61.445.658zM77.55 35.946c0-.075.826-.106 2.15-.102.334 0 .654 0 .743-.235.072-.337.04-.688-.093-1.005-.205-.842-.42-1.731-.645-2.668-.889-3.756-1.48-6.828-1.333-6.864.146-.035.991 2.988 1.876 6.744.213.925.413 1.805.604 2.668.16.43.16.903 0 1.334a.831.831 0 0 1-.604.409c-.19.024-.383.024-.574 0-1.316-.103-2.13-.21-2.125-.28z" fill="#263238" fill-rule="nonzero"/>
            <path d="M76.429 51.36a24.007 24.007 0 0 1-12.106-5.01s2.316 6.855 11.808 7.215l.298-2.205z" fill="#EB996E" fill-rule="nonzero"/>
            <path d="M75.304 26.833c-.204.315-1.436-.147-2.965-.316-1.53-.169-2.832-.044-2.957-.4-.053-.169.232-.445.796-.662a4.912 4.912 0 0 1 2.316-.25 4.975 4.975 0 0 1 2.197.792c.498.347.706.685.613.836zM86.876 24.214c-.213.307-1.125.05-2.223.09-1.098.04-1.982.297-2.222 0-.098-.148.03-.445.413-.748a3.032 3.032 0 0 1 1.778-.578 3.072 3.072 0 0 1 1.779.503c.43.284.569.587.475.733z" fill="#263238" fill-rule="nonzero"/>
            <path d="M74.402 38.307a2.783 2.783 0 0 1 2.04-.444c.363.05.698.224.947.493.27.398.388.879.334 1.356a2.73 2.73 0 0 1-.13.85 1.111 1.111 0 0 1-.542.635 1.525 1.525 0 0 1-.889.044 3.343 3.343 0 0 1-1.374-.498 1.694 1.694 0 0 1-.764-1.2 1.147 1.147 0 0 1 .689-1.183" fill="#EB996E" fill-rule="nonzero"/>
            <path d="M77.91 41.161c-.094.036-.267-.249-.579-.636a4.752 4.752 0 0 0-3.227-1.84c-.494-.071-.823-.076-.845-.173-.022-.098.29-.263.854-.32a3.721 3.721 0 0 1 2.138.48c.65.367 1.173.924 1.498 1.596.24.51.245.867.16.893zM55.383 50.155c3.09-.618 5.473-3.272 6.535-6.224 1.063-2.952 1.005-6.202.725-9.336a1.498 1.498 0 0 0-.423-1.103c-.466-.36-1.138-.066-1.644.24a51.339 51.339 0 0 0-5.589 3.93c-1.653 1.334-3.29 2.868-3.925 4.89-.974 3.113 1.085 6.825 4.237 7.643" fill="#263238" fill-rule="nonzero"/>
            <g fill-rule="nonzero">
                <path d="M87.695 30.475V24.34l30.901-1.364.972 7.88z" fill="#37474F"/>
                <path d="m128.365 58.754-12.04-24.815-3.144-8.618s-1.1-1.828-2.275-3.413c-1.925-2.603-4.272-.985-4.272-.985a1.476 1.476 0 0 0-1.362-1.037 2.485 2.485 0 0 0-2.11.81s-.523-.72-2.158-.995a1.72 1.72 0 0 0-1.074.227c-.49-.53-1.408-1.315-2.395-1.07-.771.191-5.637 3.144-6.928 4.752-.638.796.263 2.008 1.688 1.635a12.239 12.239 0 0 0 1.715-.495c.44-.19.848-.449 1.207-.767 0 0-1.418 1.567-.246 2.339.738.23 1.539.123 2.19-.293.48-.316 1.016-.738 1.538-1.153l-.11.121c-.245 1.597.815 2.363 1.665 1.889.395-.221.777-.464 1.145-.73 1.7 1.52-1.032 2.972-2.102 2.77a33.165 33.165 0 0 0-4.987-.524c-.945-.023-1.8.115-2.367.579-.677.563-.174 1.948.665 2.17 1.562.415 3.55.977 5.597 1.742 2.41.897 8.674 3.688 8.674 3.688l.578.579 6.553 22.418-15.422 1.611-5.378 18.764 28.012-4.53c6.467-2.583 10.248-10.442 7.143-16.67z" fill="#FFBE9D"/>
                <path d="M106.887 36.541a1.867 1.867 0 0 1-.336-.12l-.948-.381-3.473-1.443-2.393-1.007a57.357 57.357 0 0 0-2.758-1.112 27.283 27.283 0 0 0-3.123-.994 5.495 5.495 0 0 1-1.7-.496 1.165 1.165 0 0 1-.359-.328.734.734 0 0 1-.107-.253l-.006-.238c-.014-.318.039-.635.156-.931.14-.302.393-.538.704-.66a4.65 4.65 0 0 1 .875-.247 5.726 5.726 0 0 1 1.791-.03c1.15.12 2.214.41 3.254.475.503.041 1.01.045 1.514.012.491-.038.964-.113 1.427-.18a7.495 7.495 0 0 1 2.612-.061c.71.143 1.391.396 2.023.749.475.26.935.548 1.375.864.362.257.635.469.83.61.096.07.186.146.27.23a1.823 1.823 0 0 1-.3-.193l-.835-.57c-.445-.301-.907-.577-1.384-.825a6.93 6.93 0 0 0-1.991-.701 7.366 7.366 0 0 0-2.553.084c-.454.073-.937.157-1.438.198a10.18 10.18 0 0 1-1.55-.002c-1.058-.062-2.138-.332-3.26-.463a5.575 5.575 0 0 0-1.702.03c-.558.121-1.192.247-1.422.777-.1.266-.147.55-.137.835l.01.206c.01.057.033.11.068.155.079.107.177.197.29.267a5.535 5.535 0 0 0 1.627.466c1.068.276 2.12.616 3.147 1.02.985.367 1.9.758 2.755 1.134l2.386 1.033 3.444 1.51.93.42c.1.045.197.099.287.16zM97.448 18.88c.022.038-.728.37-1.854 1.052-.658.4-1.29.842-1.892 1.321-.682.537-1.408 1.193-2.245 1.754-.412.222-.74.577-.928 1.006a.774.774 0 0 0 .431 1.002c.37.147.77.196 1.165.145.354-.028.705-.09 1.048-.185a7.326 7.326 0 0 0 1.905-.9 1.738 1.738 0 0 1-.442.374 5.45 5.45 0 0 1-1.413.688c-.35.107-.71.18-1.074.218a2.552 2.552 0 0 1-1.273-.134.987.987 0 0 1-.56-1.27 2.334 2.334 0 0 1 1.013-1.128c.824-.566 1.546-1.178 2.247-1.73a15.724 15.724 0 0 1 1.924-1.291c.58-.328 1.064-.554 1.415-.705.17-.09.349-.162.533-.217z" fill="#EB996E"/>
                <path d="M102.787 21.283c-.18.196-.372.38-.576.552l-1.623 1.447-2.428 2.128a5.406 5.406 0 0 1-1.652 1.006c-.333.126-.69.176-1.043.145a1.423 1.423 0 0 1-.975-.513.951.951 0 0 1-.18-.578 1.6 1.6 0 0 1 .117-.56 3.24 3.24 0 0 1 .57-.919c.87-.744 1.676-1.446 2.402-2.094.725-.648 1.434-1.141 2.007-1.577.249-.211.525-.388.82-.527.235-.075.482-.104.728-.084.397.015.624.065.596.116a1.823 1.823 0 0 0-.595-.036 2.014 2.014 0 0 0-.686.107c-.28.15-.54.33-.777.54-.557.451-1.241.97-1.957 1.61-.715.64-1.52 1.368-2.387 2.122a3.112 3.112 0 0 0-.535.838 1.427 1.427 0 0 0-.104.48c.002.158.051.311.142.44.205.242.498.393.814.42.318.028.64-.016.939-.128a5.255 5.255 0 0 0 1.589-.955l2.454-2.09 1.67-1.388.464-.372c.13-.093.198-.137.206-.13zM109.337 24.126s-.015.137-.205.242a.942.942 0 0 1-1.341-.378c-.084-.178-.07-.307-.044-.308.027-.002.08.093.183.22.13.165.308.286.508.349.205.052.421.042.62-.03.158-.054.254-.12.279-.095z" fill="#EB996E"/>
                <path d="M109.654 26.211c-.053.035-.35-.332-.589-.862a1.85 1.85 0 0 1-.265-1.007c.06-.016.239.405.476.913.173.298.3.62.378.956zM109.8 34.22a2.872 2.872 0 0 1-.323-.965 7.558 7.558 0 0 1-.109-2.456 7.624 7.624 0 0 1 .695-2.359 2.85 2.85 0 0 1 .538-.864 11.83 11.83 0 0 0-.99 3.253 11.71 11.71 0 0 0 .19 3.39zM118.482 66.105c-.044-.004-.039-.478-.193-1.222a7.473 7.473 0 0 0-.394-1.271 7.41 7.41 0 0 0-1.869-2.633 7.242 7.242 0 0 0-1.065-.796c-.647-.394-1.099-.562-1.087-.588a.982.982 0 0 1 .327.08c.296.096.582.219.855.366.402.22.779.482 1.125.78a6.85 6.85 0 0 1 1.923 2.715c.167.426.287.868.358 1.32.05.298.074.6.07.902.002.117-.014.235-.05.347zM105.665 22.359a1.583 1.583 0 0 1-.266.316c-.182.195-.447.471-.792.81a42.094 42.094 0 0 1-2.77 2.459c-.556.442-1.088.95-1.76 1.084a1.44 1.44 0 0 1-.932-.098 1.2 1.2 0 0 1-.543-.616 1.81 1.81 0 0 1-.046-1.14c.022-.137.07-.269.144-.387 0 .137-.014.273-.043.407-.07.355-.032.723.108 1.057.097.216.267.392.48.498.25.117.531.147.8.084.585-.122 1.096-.605 1.657-1.055 1.12-.906 2.1-1.769 2.808-2.387.361-.37.747-.715 1.155-1.032z" fill="#EB996E"/>
                <path d="M109.043 22.714c-.086.12-.19.226-.306.316-.204.193-.496.467-.88.802l-1.325 1.161-.786.678a6.33 6.33 0 0 1-.887.693 2.094 2.094 0 0 1-1.125.329c-.394 0-.758-.209-.957-.548a.89.89 0 0 1-.11-.53c.028-.166.097-.324.2-.457.192-.248.381-.434.548-.622.334-.372.611-.669.807-.872.093-.114.201-.214.322-.297-.07.13-.154.25-.252.358-.175.219-.432.532-.754.918-.159.193-.351.41-.513.625a.662.662 0 0 0-.08.77.89.89 0 0 0 .782.422c.353-.001.698-.101.996-.289a5.78 5.78 0 0 0 .877-.65l.8-.667 1.356-1.127c.386-.317.703-.57.927-.743.107-.106.228-.197.36-.27z" fill="#EB996E"/>
            </g>
            <path d="M66.493 100.587a6.326 6.326 0 0 0-3.703.47c-1.979-.888-4.42.637-4.42.637-.715-.343-5.028 2.476-5.028 2.476l-5.37 2.534-28.688-21.317 8.131-8.447-11.394-11.857L2.684 78.821a10.07 10.07 0 0 0-2.667 6.468A13.155 13.155 0 0 0 7.32 97.737l33.787 17.338a39.455 39.455 0 0 0 7.687-1.196c2.916-.76 7.9-2.974 7.9-2.974s0 .151.889 1.88c1.605 3.113 3.956-.248 3.956-.248a6.45 6.45 0 0 0 .916 1.52c2.032 1.97 3.441-.676 3.441-.676s.61 1.063 2.423.271c1.814-.79-.262-6.25-.262-6.25s.609 1.187 1.778-.316c1.17-1.502-1.4-6.09-3.343-6.5z" fill="#FFBE9D" fill-rule="nonzero"/>
            <path d="M62.434 101.338a.858.858 0 0 1 .373-.147c.36-.078.735-.066 1.09.036.521.148 1.01.397 1.435.733.257.191.496.404.716.636.222.273.41.572.56.89.527 1.06.966 2.161 1.312 3.293.133.445.222.787.28 1.036.041.126.06.259.058.392-.031 0-.191-.53-.494-1.379a30.404 30.404 0 0 0-1.365-3.24 3.939 3.939 0 0 0-.524-.823 5.82 5.82 0 0 0-.671-.618 4.406 4.406 0 0 0-1.334-.747 2.974 2.974 0 0 0-1.436-.062zM65.888 113.395a2.512 2.512 0 0 1-.253-.494l-.627-1.36c-.53-1.152-1.303-2.725-2.04-4.517a12.003 12.003 0 0 0-1.17-2.432 4.001 4.001 0 0 0-1.65-1.374 2.667 2.667 0 0 0-1.422-.253c-.347.045-.524.138-.533.116-.01-.023.04-.031.124-.076.124-.062.255-.105.391-.129a2.61 2.61 0 0 1 1.507.191 4.077 4.077 0 0 1 1.757 1.405c.499.77.905 1.597 1.209 2.463.733 1.778 1.485 3.37 1.978 4.54.245.581.445 1.062.56 1.39.076.17.132.348.17.53zM52.72 106.535c.14-.1.288-.184.445-.253l1.28-.618c.276-.13.565-.272.89-.414.364-.145.759-.203 1.15-.169.437.035.855.189 1.21.445.358.292.659.648.889 1.049.244.4.444.814.622 1.196s.387.751.583 1.098c.386.689.751 1.307 1.018 1.85.22.423.41.861.569 1.31.07.16.119.33.142.503-.035 0-.276-.689-.854-1.738-.288-.525-.662-1.13-1.062-1.818-.2-.347-.4-.716-.596-1.103-.195-.387-.382-.791-.618-1.178a3.779 3.779 0 0 0-.822-.991 2.245 2.245 0 0 0-1.09-.445 2.325 2.325 0 0 0-1.062.133c-.32.13-.627.272-.889.383l-1.311.591a2.16 2.16 0 0 1-.494.169zM53.342 104.174c-.118.099-.25.181-.39.245-.259.147-.636.351-1.108.6a252.717 252.717 0 0 1-7.42 3.743l-1.138.534c-.14.074-.29.13-.444.164.121-.098.254-.182.395-.249.258-.142.636-.347 1.107-.595a231.38 231.38 0 0 1 3.695-1.903c1.45-.734 2.765-1.378 3.72-1.836.48-.231.89-.414 1.143-.538.138-.076.287-.132.44-.165zM19.666 85.44a14.506 14.506 0 0 0-3.387-.111 14.67 14.67 0 0 0-3.272.89c.267-.214.568-.382.889-.499a8.5 8.5 0 0 1 2.356-.631 8.593 8.593 0 0 1 2.445.062c.337.043.664.141.97.29z" fill="#EB996E" fill-rule="nonzero"/>
            <path d="M83.022 8.432a89.358 89.358 0 0 0-21.126 2.223c-1.605.369-3.303.84-4.388 2.076-1.151 1.307-1.334 3.17-1.503 4.89l-.55 6.335a14.59 14.59 0 0 1-1.01 1.508c-1.672 2.182-3.801 4-5.335 6.295-1.534 2.294-2.36 5.334-1.125 7.788.752 1.485 2.139 2.534 3.152 3.85 1.72 2.223 2.281 5.117 3.286 7.754 1.004 2.636 2.818 5.334 5.588 5.85 1.334.254 2.694-.026 4.023.17 1.988.288 3.66 1.59 5.237 2.831 1.579 1.24 3.295 2.503 5.295 2.703 2 .2 4.29-1.156 4.33-3.165-1.511.852-3.37.8-4.832-.134-1.165-.769-1.916-2.014-2.917-2.983-2.458-2.383-6.415-3.138-8.126-6.104-1.334-2.343-.814-5.281-.2-7.917.529-2.286 1.071-4.762.409-6.958.052-.353.08-.71.084-1.067 0-2.338-.911-4.846.178-6.913 1.44-2.738 5.593-3.085 7.046-5.81.85-1.588.552-3.615 1.476-5.157.867-1.45 2.605-2.117 4.26-2.477 1.653-.36 3.391-.524 4.85-1.378 1.458-.853 2.56-2.658 1.898-4.21z" fill="#263238" fill-rule="nonzero"/>
            <path d="M88.41 56.13a.445.445 0 0 1-.067.111l-.218.307a6.18 6.18 0 0 1-1.022 1.036 6.904 6.904 0 0 1-2.032 1.089 7.02 7.02 0 0 1-3.023.351 6.388 6.388 0 0 1-3.405-1.396c-1.058-.814-2-1.894-3.197-2.752a4.615 4.615 0 0 0-2.036-.858 4.446 4.446 0 0 0-2.267.414c-.752.354-1.54.626-2.352.809a4.13 4.13 0 0 1-2.534-.445 12.75 12.75 0 0 1-2.138-1.418 17.378 17.378 0 0 1-1.876-1.632 5.864 5.864 0 0 1-1.334-2.01 4.161 4.161 0 0 1-.151-2.31c.163-.714.387-1.412.671-2.086a25.9 25.9 0 0 0 1.787-10.79 22.847 22.847 0 0 0-.102-1.444c0-.156 0-.276-.031-.374a.405.405 0 0 1 0-.129.4.4 0 0 1 .027.125l.053.373c.049.33.107.814.147 1.445a25.287 25.287 0 0 1-1.014 8.94 31.78 31.78 0 0 1-.671 1.948c-.278.655-.5 1.333-.663 2.027a3.908 3.908 0 0 0 .152 2.196 5.66 5.66 0 0 0 1.289 1.93 17.098 17.098 0 0 0 1.854 1.604c.65.533 1.354 1 2.098 1.392.73.401 1.57.557 2.396.444a11.3 11.3 0 0 0 2.303-.795 4.7 4.7 0 0 1 2.378-.418 4.824 4.824 0 0 1 2.134.889c1.219.889 2.152 1.974 3.192 2.778a6.188 6.188 0 0 0 3.304 1.383 7.113 7.113 0 0 0 4.979-1.334c.51-.41.97-.88 1.369-1.4z" fill="#263238" fill-rule="nonzero"/>
            <path d="M43.993 41.993a5.144 5.144 0 0 1-.355-.494 5.028 5.028 0 0 1-.632-1.618 6.695 6.695 0 0 1 .045-2.748 8.447 8.447 0 0 1 1.538-3.298c.918-1.16 2-2.181 3.21-3.032 1.276-.952 2.725-1.836 4.17-2.863a15.302 15.302 0 0 0 3.956-3.846 9.91 9.91 0 0 0 1.2-2.667c.285-.952.48-1.947.712-2.952.2-1.002.498-1.982.89-2.925a6.606 6.606 0 0 1 1.746-2.414 7.415 7.415 0 0 1 2.521-1.392 11.688 11.688 0 0 1 2.703-.533 30.857 30.857 0 0 1 5.068.16c1.456.155 2.924.175 4.384.058a9.336 9.336 0 0 0 3.436-1.023 6.81 6.81 0 0 0 2.103-1.698c.366-.445.655-.949.853-1.49.125-.373.174-.577.183-.573a4.35 4.35 0 0 1-.138.591 5.024 5.024 0 0 1-.827 1.53 6.904 6.904 0 0 1-2.112 1.778 9.434 9.434 0 0 1-3.48 1.071c-1.471.13-2.951.119-4.42-.03a31.12 31.12 0 0 0-5.032-.139c-.907.071-1.803.25-2.668.534a7.229 7.229 0 0 0-2.445 1.333 6.42 6.42 0 0 0-1.685 2.339c-.39.93-.688 1.896-.889 2.885-.231 1-.444 2-.72 2.965a9.87 9.87 0 0 1-1.231 2.712 15.435 15.435 0 0 1-4.002 3.895c-1.458 1.031-2.907 1.907-4.178 2.845a15.209 15.209 0 0 0-3.192 2.979 8.198 8.198 0 0 0-1.543 3.223 6.562 6.562 0 0 0-.085 2.703 5.66 5.66 0 0 0 .916 2.134z" fill="#455A64" fill-rule="nonzero"/>
            <path d="M45.296 44.327a9.83 9.83 0 0 1-1.365-1.312 6.113 6.113 0 0 1-1.187-1.88 3.08 3.08 0 0 1-.205-1.392 2.76 2.76 0 0 1 .6-1.454c.72-.889 1.912-1.36 3.162-1.622.626-.13 1.284-.232 1.938-.396a5.513 5.513 0 0 0 1.894-.787 4.57 4.57 0 0 0 1.378-1.631c.338-.685.623-1.393.853-2.121.237-.763.534-1.507.89-2.223.38-.753.956-1.39 1.667-1.845a8.189 8.189 0 0 1 2.316-.889c.787-.205 1.565-.369 2.298-.618a7.433 7.433 0 0 0 3.53-2.6 26.94 26.94 0 0 0 2.21-3.437 19.028 19.028 0 0 1 1.996-2.957 7.593 7.593 0 0 1 2.28-1.862 5.753 5.753 0 0 1 2.13-.645 4.001 4.001 0 0 1 1.405.116c.152.04.301.094.444.16 0 0-.164-.045-.475-.116a4.361 4.361 0 0 0-1.383-.071 5.82 5.82 0 0 0-2.076.667 7.558 7.558 0 0 0-2.223 1.854 19.654 19.654 0 0 0-1.956 2.952 26.785 26.785 0 0 1-2.187 3.463 9.287 9.287 0 0 1-1.57 1.587 6.829 6.829 0 0 1-2.031 1.076c-.747.258-1.534.422-2.312.627a7.891 7.891 0 0 0-2.25.889 4.495 4.495 0 0 0-1.591 1.778 14.813 14.813 0 0 0-.89 2.192c-.24.738-.536 1.456-.888 2.147a4.89 4.89 0 0 1-1.45 1.707 5.886 5.886 0 0 1-1.97.81c-.666.16-1.333.257-1.946.386-1.232.249-2.392.707-3.072 1.534-.323.39-.525.866-.583 1.37-.043.451.018.908.178 1.333a6.33 6.33 0 0 0 1.134 1.867c.391.445.724.796.951 1.022l.262.254c.067.031.098.062.094.067z" fill="#455A64" fill-rule="nonzero"/>
        </g>
        <path d="m94.47 32.75 3.556-6.441c-4.731-7.517-2.947-17.401 4.113-22.79 7.06-5.387 17.065-4.5 23.067 2.047 6.001 6.547 6.017 16.591.036 23.157-5.98 6.567-15.982 7.486-23.06 2.12l-7.713 1.908z" fill="#FFF" fill-rule="nonzero"/>
        <path d="m94.47 32.778 7.722-1.956-.032.093-.27-.342.355.262a17.618 17.618 0 0 0 3.53 2.054 17.16 17.16 0 0 0 4.677 1.267c.892.112 1.792.144 2.69.098.444-.031.933-.049 1.409-.093l1.427-.236a17.103 17.103 0 0 0 10.514-6.922 16.951 16.951 0 0 0 2.792-6.575 17.28 17.28 0 0 0-.303-7.535 16.747 16.747 0 0 0-3.694-6.922l-.698-.752c-.231-.253-.502-.444-.751-.693a9.083 9.083 0 0 0-.774-.663l-.818-.6a7.029 7.029 0 0 0-.822-.538l-.89-.524-.889-.445a7.838 7.838 0 0 0-.889-.396 17.236 17.236 0 0 0-7.598-1.098 16.65 16.65 0 0 0-6.948 2.116 17.24 17.24 0 0 0-7.976 9.959 18.672 18.672 0 0 0-.702 5.53 17.045 17.045 0 0 0 2.578 8.447V26.371l-3.623 6.411 3.526-6.468v.058a17.045 17.045 0 0 1-2.646-8.478 18.672 18.672 0 0 1 .69-5.584 17.445 17.445 0 0 1 8.028-10.1 16.93 16.93 0 0 1 7.038-2.152 17.503 17.503 0 0 1 7.7 1.107c.315.114.622.247.92.4l.916.444.889.52c.298.166.585.352.858.556l.796.596c.284.196.52.445.787.671.266.227.524.445.76.703l.725.782a16.854 16.854 0 0 1 3.743 7.015c.65 2.492.745 5.097.275 7.63a17.058 17.058 0 0 1-2.836 6.668 17.245 17.245 0 0 1-10.647 6.98l-1.45.235c-.475.045-.95.058-1.418.09-.907.043-1.816.006-2.716-.112a17.094 17.094 0 0 1-4.717-1.298 17.338 17.338 0 0 1-3.556-2.094l.08-.08.057.071h-.089l-7.73 1.836z" fill="#263238" fill-rule="nonzero"/>
        <g transform="translate(103.002 15.169)" fill="#45BEA5">
            <circle cx="9.48" cy="1.896" r="1.896"/>
            <circle cx="17.065" cy="1.896" r="1.896"/>
            <circle cx="1.896" cy="1.896" r="1.896"/>
        </g>
        <path fill="#37474F" fill-rule="nonzero" d="m87.695 55.759.193-1.894 31.68-3.51v6.166z"/>
        <path d="m101.27 51.696 1.844-1.563c-.547.587-.573 1.108-.077 1.563.496.454 1.261.329 2.296-.375l.096 1.815-1.5-.283-1.843.133-.816-1.29z" fill="#37474F"/>
        <path fill="#37474F" d="m104.636 52.767 6.562-1.567-5.394-.347-1.168.957z"/>
        <path fill="#37474F" d="m105.746 50.955 2.977-2.694 6.143-.894v4.892l-6.95-.25z"/>
        <path fill="#455A64" fill-rule="nonzero" d="M111.666 57.624 111 46.317l31.622-4.42.966 16.382z"/>
        <path fill="#37474F" fill-rule="nonzero" d="m134.604 58.901-.978-16.563 23.903-5.15 1.418 24.007z"/>
        <path d="M159.876 49.093c.358 6.055-.086 11.007-.99 11.06-.904.054-1.932-4.811-2.29-10.866-.357-6.055.09-11.003.995-11.056.904-.054 1.928 4.811 2.285 10.862z" fill="#45BEA5" fill-rule="nonzero"/>
    </g>
</svg>
